<?xml version="1.0" encoding="iso-8859-1"?>
<!-- Generator: Adobe Illustrator 18.0.0, SVG Export Plug-In . SVG Version: 6.00 Build 0)  -->
<!DOCTYPE svg PUBLIC "-//W3C//DTD SVG 1.1//EN" "http://www.w3.org/Graphics/SVG/1.1/DTD/svg11.dtd">
<svg version="1.1" id="Capa_1" xmlns="http://www.w3.org/2000/svg" xmlns:xlink="http://www.w3.org/1999/xlink" x="0px" y="0px"
	 viewBox="0 0 475.461 475.461" style="enable-background:new 0 0 475.461 475.461;" xml:space="preserve">
<g>
	<path d="M243.256,316.636c-3.625-9.067-12.411-15.007-22.178-15.007h-57.373l34.604-97.392l16.361,30.282
		c2.91,5.381,8.119,9.129,14.153,10.172l63.86,10.933c1.135,0.186,2.271,0.28,3.391,0.28c9.517,0,17.933-6.843,19.595-16.549
		c1.852-10.841-5.428-21.121-16.267-22.988l-54.311-9.299l-28.882-53.439c6.844-20.514-3.919-42.801-24.37-50.065
		c-20.67-7.402-43.486,3.453-50.842,24.185c0,0-63.269,168.887-63.269,186.741c0,17.404,12.785,31.712,29.441,34.355
		c1.276,0.218,2.551,0.499,3.857,0.513H75.442L44.274,167.394c-1.867-10.841-12.177-18.027-22.986-16.268
		c-10.841,1.866-18.119,12.147-16.268,22.986l34.013,198.515c1.648,9.565,9.924,16.547,19.629,16.547h32.847v52.584
		c-24.091,2.349-41.511,8.74-41.511,16.346c0,9.579,27.498,17.356,61.418,17.356c33.919,0,61.433-7.777,61.433-17.356
		c0-7.606-17.436-13.997-41.525-16.346v-52.584h47.419c10.995,0,19.907-8.911,19.907-19.907c0-10.917-8.788-19.736-19.675-19.86
		h25.927l43.983,109.926c3.733,9.331,12.706,15.009,22.178,15.009c2.954,0,5.972-0.545,8.88-1.71
		c12.239-4.9,18.197-18.804,13.297-31.059L243.256,316.636z"/>
	<path d="M239.118,99.257c27.42,0,49.644-22.225,49.644-49.644C288.762,22.225,266.538,0,239.118,0
		c-27.388,0-49.612,22.225-49.612,49.612C189.505,77.032,211.73,99.257,239.118,99.257z"/>
	<path d="M450.821,284.101H293.257c-10.995,0-19.907,8.911-19.907,19.908c0,10.995,8.912,19.907,19.907,19.907h66.846v117.173
		c-28.197,1.57-49.488,8.586-49.488,17.015c0,9.579,27.512,17.356,61.433,17.356c33.921,0,61.433-7.777,61.433-17.356
		c0-8.43-21.291-15.445-49.488-17.015V323.916h66.83c10.995,0,19.907-8.912,19.907-19.907
		C470.729,293.012,461.817,284.101,450.821,284.101z"/>
	<path d="M328.655,274.318h64.559c5.225,0,9.86-3.405,11.4-8.398l28.445-91.622c1.961-6.299-1.554-13.002-7.853-14.945
		c-6.331-1.976-12.988,1.57-14.946,7.853l-25.848,83.222h-55.757c-6.595,0-11.944,5.351-11.944,11.945
		C316.711,268.968,322.06,274.318,328.655,274.318z"/>
</g>
<g>
</g>
<g>
</g>
<g>
</g>
<g>
</g>
<g>
</g>
<g>
</g>
<g>
</g>
<g>
</g>
<g>
</g>
<g>
</g>
<g>
</g>
<g>
</g>
<g>
</g>
<g>
</g>
<g>
</g>
</svg>
